<svg
  xmlns="http://www.w3.org/2000/svg"
  viewBox="-5 -4 59 59"
  width="32"
  height="32"
>
  <path
    d="M28.05,34.22c2.88,0,5.23,2.33,5.23,5.19v7.37c0,.62.49,1.11,1.13,1.12h4.56c3.6,0,6.52-2.89,6.52-6.44v-20.89c-.02-1.22-.6-2.37-1.6-3.13l-15.79-12.59c-2.12-1.68-5.08-1.68-7.21,0l-15.68,12.58c-1.04.79-1.62,1.94-1.63,3.18v20.85c0,3.55,2.92,6.44,6.52,6.44h4.61c.65,0,1.18-.52,1.18-1.15,0-.14.02-.28.05-.41v-6.93c0-2.85,2.33-5.17,5.19-5.19h6.92ZM38.97,51.49h-4.61c-2.64-.06-4.67-2.13-4.67-4.71v-7.37c0-.88-.73-1.6-1.64-1.6h-6.91c-.88,0-1.61.72-1.61,1.6v7.34c0,.18-.02.35-.07.52-.26,2.37-2.28,4.22-4.74,4.22h-4.61c-5.58,0-10.11-4.5-10.11-10.03v-20.86c.02-2.38,1.12-4.56,3.01-5.99L18.66,2.05c3.45-2.73,8.25-2.73,11.68,0l15.76,12.57c1.85,1.41,2.95,3.59,2.98,5.94v20.91c0,5.53-4.53,10.03-10.11,10.03h0Z"
    fill="currentColor"
    stroke-linecap="round"
    stroke-linejoin="round"
    stroke="currentColor"
    stroke-width="2"
  />
</svg>
