<?xml version="1.0" encoding="UTF-8"?>
<svg xmlns="http://www.w3.org/2000/svg" viewBox="0 0 61.53 65.69">
  <defs></defs>
  <path d="M29.45.02c8.36.3,14.74,1.66,19.84,4.33,5.13,2.68,8.85,6.6,12.01,11.8l.23.38v.45s-1.13,35.85-1.13,35.85l-.04,1.19-1.16.24-54.84,11.08-1.79.36v-1.83s-.01-14.72-.01-14.72v-.87s.76-.43.76-.43c3.12-1.78,4.52-4.4,4.35-6.56-.17-2.05-1.83-4.4-6.46-5.52l-1.2-.29.05-1.23.25-6.15.04-.89.02-.62.45-.42c4.48-4.19,9.13-8.53,13.78-12.87C19.24,8.95,23.89,4.61,28.37.43l.46-.43.62.02ZM58.46,18.76c-5.8,1.12-12.53,2.3-19.5,3.49l-15.57,2.64c-7.24,1.24-14.19,2.45-20.11,3.61l-.19,4.66c4.65,1.45,7.27,4.36,7.55,7.86.28,3.41-1.74,6.76-5.1,8.95v12.05s51.89-10.48,51.89-10.48l1.02-32.79ZM23.19,43.74c2.88,0,5.21,2.35,5.21,5.23,0,2.88-2.32,5.23-5.21,5.23s-5.21-2.35-5.21-5.23,2.32-5.23,5.21-5.23ZM23.19,46.74c-1.21,0-2.21.99-2.21,2.23s1,2.23,2.21,2.23,2.21-.99,2.21-2.23c0-1.24-1-2.23-2.21-2.23ZM45.2,36.28c2.89,0,5.21,2.35,5.21,5.23s-2.32,5.23-5.21,5.23c-2.88,0-5.21-2.35-5.21-5.23,0-2.88,2.32-5.23,5.21-5.23ZM45.2,39.28c-1.21,0-2.21.99-2.21,2.23,0,1.24,1,2.23,2.21,2.23,1.21,0,2.21-.99,2.21-2.23s-1-2.23-2.21-2.23ZM30.79,28.82c2.88,0,5.21,2.35,5.21,5.23s-2.32,5.23-5.21,5.23-5.21-2.35-5.21-5.23c0-2.88,2.32-5.23,5.21-5.23ZM30.79,31.82c-1.21,0-2.21.99-2.21,2.23,0,1.24,1,2.23,2.21,2.23s2.21-.99,2.21-2.23-1-2.23-2.21-2.23ZM16.64,15.49c-3.35,3.13-6.69,6.25-9.98,9.32,7.26-1.36,15.65-2.78,24.02-4.19,9.53-1.61,19.04-3.22,26.88-4.74-2.67-3.91-5.71-6.81-9.66-8.87-4.45-2.32-10.15-3.63-17.95-3.96-4.34,4.06-8.83,8.25-13.32,12.44Z"
    stroke="currentColor"
    fill="currentColor"
    />
</svg>
