<?xml version="1.0" encoding="UTF-8"?>
<svg xmlns="http://www.w3.org/2000/svg" viewBox="0 0 31.87 28.31">
  <path
    d="M27.72,4.15c-.68-.68-1.49-1.22-2.38-1.59-.89-.37-1.84-.56-2.81-.56s-1.92.19-2.81.56c-.89.37-1.7.91-2.38,1.59l-1.41,1.41-1.41-1.41c-1.38-1.38-3.24-2.15-5.19-2.15s-3.81.77-5.19,2.15c-1.38,1.38-2.15,3.24-2.15,5.19s.77,3.81,2.15,5.19l11.79,11.79,11.79-11.79c.68-.68,1.22-1.49,1.59-2.38.37-.89.56-1.84.56-2.81s-.19-1.92-.56-2.81c-.37-.89-.91-1.7-1.59-2.38Z"
    fill="none"
    stroke="currentColor"
    stroke-linecap="round"
    stroke-linejoin="round"
    stroke-width="3"
  />
</svg>
