<svg width="414" height="896" viewBox="0 0 414 896" fill="none" xmlns="http://www.w3.org/2000/svg">
<g id="home">
<g clip-path="url(#clip0_1_421)">
<rect width="414" height="896" rx="40" fill="white"/>
<rect id="Rectangle 17" y="2" width="414" height="896" rx="40" fill="#FFFAF1"/>
<path id="Union" d="M207.896 77.501C216.255 77.8009 222.632 79.1641 227.737 81.8271C232.87 84.5044 236.592 88.4296 239.752 93.626L239.983 94.0068L239.97 94.4521L238.856 130.305L238.819 131.493L237.654 131.729L182.814 142.81L181.019 143.172L181.017 141.34L181.006 126.618L181.005 125.746L181.764 125.313C184.88 123.537 186.287 120.915 186.11 118.749C185.943 116.702 184.278 114.352 179.646 113.229L178.45 112.939L178.501 111.71L178.755 105.564L178.791 104.678L178.815 104.062L179.266 103.643C183.75 99.4538 188.396 95.1134 193.042 90.7734C197.688 86.4333 202.335 82.0931 206.819 77.9043L207.274 77.4785L207.896 77.501ZM236.912 96.2373C231.111 97.3615 224.383 98.5403 217.416 99.7295L201.846 102.372C194.611 103.607 187.658 104.825 181.739 105.982L181.548 110.646C186.194 112.099 188.815 115.011 189.101 118.505C189.379 121.919 187.356 125.264 184.006 127.456L184.015 139.506L235.894 129.023L236.912 96.2373ZM201.643 121.218C204.527 121.218 206.85 123.568 206.851 126.448C206.851 129.329 204.528 131.68 201.643 131.68C198.758 131.68 196.434 129.329 196.434 126.448C196.434 123.568 198.758 121.218 201.643 121.218ZM201.643 124.218C200.431 124.218 199.434 125.208 199.434 126.448C199.434 127.689 200.431 128.68 201.643 128.68C202.854 128.68 203.851 127.689 203.851 126.448C203.85 125.208 202.854 124.218 201.643 124.218ZM223.65 113.756C226.535 113.756 228.858 116.106 228.858 118.986C228.858 121.867 226.535 124.217 223.65 124.218C220.765 124.218 218.441 121.867 218.441 118.986C218.442 116.106 220.765 113.756 223.65 113.756ZM223.65 116.756C222.439 116.756 221.442 117.746 221.441 118.986C221.441 120.227 222.439 121.218 223.65 121.218C224.861 121.217 225.858 120.227 225.858 118.986C225.858 117.746 224.861 116.756 223.65 116.756ZM209.235 106.294C212.12 106.294 214.443 108.644 214.443 111.524C214.443 114.405 212.12 116.756 209.235 116.756C206.35 116.756 204.026 114.405 204.026 111.524C204.027 108.644 206.351 106.294 209.235 106.294ZM209.235 109.294C208.024 109.294 207.027 110.284 207.026 111.524C207.026 112.765 208.024 113.756 209.235 113.756C210.447 113.756 211.443 112.765 211.443 111.524C211.443 110.284 210.446 109.294 209.235 109.294ZM195.09 92.9658C191.744 96.0914 188.397 99.2162 185.111 102.285C192.373 100.93 200.762 99.5087 209.131 98.0928C218.664 96.4798 228.171 94.8681 236.006 93.3564C233.339 89.4465 230.293 86.5431 226.35 84.4863C221.903 82.1669 216.202 80.861 208.405 80.5264C204.064 84.5817 199.577 88.7743 195.09 92.9658Z" fill="#92400E"/>
<g id="Pills">
<g id="Pills_2">
<rect x="118" y="517" width="172" height="43" rx="21.5" fill="#FCD34D"/>
<path id="Label" d="M189.12 543.5V532.3H190.56V542.38H194.56V543.5H189.12ZM198.079 543.66C197.439 543.66 196.9 543.532 196.463 543.276C196.025 543.009 195.689 542.572 195.455 541.964C195.231 541.356 195.119 540.535 195.119 539.5C195.119 538.455 195.231 537.633 195.455 537.036C195.689 536.428 196.025 535.996 196.463 535.74C196.9 535.473 197.439 535.34 198.079 535.34C198.719 535.34 199.257 535.473 199.695 535.74C200.143 535.996 200.479 536.428 200.703 537.036C200.927 537.633 201.039 538.455 201.039 539.5C201.039 540.535 200.927 541.356 200.703 541.964C200.479 542.572 200.143 543.009 199.695 543.276C199.257 543.532 198.719 543.66 198.079 543.66ZM198.079 542.78C198.345 542.78 198.591 542.684 198.815 542.492C199.049 542.3 199.236 541.969 199.375 541.5C199.524 541.02 199.599 540.353 199.599 539.5C199.599 538.647 199.524 537.985 199.375 537.516C199.236 537.036 199.049 536.7 198.815 536.508C198.591 536.316 198.345 536.22 198.079 536.22C197.812 536.22 197.561 536.316 197.327 536.508C197.103 536.7 196.916 537.036 196.767 537.516C196.628 537.985 196.559 538.647 196.559 539.5C196.559 540.353 196.628 541.02 196.767 541.5C196.916 541.969 197.103 542.3 197.327 542.492C197.561 542.684 197.812 542.78 198.079 542.78ZM204.638 546.86C204.318 546.86 203.977 546.823 203.614 546.748C203.262 546.684 202.963 546.615 202.718 546.54V545.9H204.318C205.043 545.9 205.571 545.708 205.902 545.324C206.233 544.951 206.398 544.263 206.398 543.26C206.163 543.377 205.918 543.473 205.662 543.548C205.406 543.623 205.118 543.66 204.798 543.66C204.243 543.66 203.769 543.537 203.374 543.292C202.979 543.036 202.675 542.609 202.462 542.012C202.259 541.404 202.158 540.567 202.158 539.5C202.158 538.433 202.265 537.601 202.478 537.004C202.702 536.396 203.043 535.969 203.502 535.724C203.971 535.468 204.563 535.34 205.278 535.34C205.758 535.34 206.206 535.383 206.622 535.468C207.038 535.543 207.443 535.66 207.838 535.82V542.86C207.838 543.873 207.726 544.668 207.502 545.244C207.278 545.831 206.931 546.247 206.462 546.492C205.993 546.737 205.385 546.86 204.638 546.86ZM205.278 542.7C205.481 542.7 205.689 542.668 205.902 542.604C206.115 542.529 206.281 542.455 206.398 542.38V536.3H205.278C204.937 536.3 204.638 536.391 204.382 536.572C204.126 536.743 203.929 537.063 203.79 537.532C203.662 537.991 203.598 538.647 203.598 539.5C203.598 540.353 203.662 541.015 203.79 541.484C203.929 541.943 204.126 542.263 204.382 542.444C204.638 542.615 204.937 542.7 205.278 542.7ZM209.676 543.5V535.5H211.116V543.5H209.676ZM209.676 534.38V532.62H211.116V534.38H209.676ZM212.963 543.5V535.5H214.163L214.243 535.98H214.323C214.526 535.777 214.776 535.623 215.075 535.516C215.374 535.399 215.683 535.34 216.003 535.34C216.515 535.34 216.952 535.409 217.315 535.548C217.688 535.676 217.976 535.916 218.179 536.268C218.382 536.609 218.483 537.1 218.483 537.74V543.5H217.043V537.74C217.043 537.175 216.899 536.796 216.611 536.604C216.323 536.401 215.96 536.3 215.523 536.3C215.32 536.3 215.112 536.332 214.899 536.396C214.686 536.46 214.52 536.535 214.403 536.62V543.5H212.963Z" fill="#92400E"/>
</g>
</g>
<g id="Pills_3">
<g id="Pills_4">
<rect x="18" y="347" width="380" height="53" rx="20" fill="#EFEFF0"/>
<g id="Iconly/Light-Outline/Search">
<g id="Iconly/Light-Outline/Search_2">
<g id="Search">
<g id="Group 3">
<mask id="mask0_1_421" style="mask-type:luminance" maskUnits="userSpaceOnUse" x="180" y="365" width="17" height="17">
<path id="Clip 2" fill-rule="evenodd" clip-rule="evenodd" d="M180.667 365.167H196.897V381.397H180.667V365.167Z" fill="white"/>
</mask>
<g mask="url(#mask0_1_421)">
<path id="Fill 1" fill-rule="evenodd" clip-rule="evenodd" d="M188.782 366.417C184.997 366.417 181.917 369.496 181.917 373.282C181.917 377.067 184.997 380.147 188.782 380.147C192.567 380.147 195.647 377.067 195.647 373.282C195.647 369.496 192.567 366.417 188.782 366.417ZM188.782 381.397C184.307 381.397 180.667 377.757 180.667 373.282C180.667 368.807 184.307 365.167 188.782 365.167C193.257 365.167 196.897 368.807 196.897 373.282C196.897 377.757 193.257 381.397 188.782 381.397Z" fill="#61646B"/>
</g>
</g>
<g id="Group 6">
<mask id="mask1_1_421" style="mask-type:luminance" maskUnits="userSpaceOnUse" x="193" y="378" width="5" height="5">
<path id="Clip 5" fill-rule="evenodd" clip-rule="evenodd" d="M193.367 378.256H197.553V382.435H193.367V378.256Z" fill="white"/>
</mask>
<g mask="url(#mask1_1_421)">
<path id="Fill 4" fill-rule="evenodd" clip-rule="evenodd" d="M196.928 382.435C196.769 382.435 196.609 382.374 196.487 382.252L193.55 379.324C193.306 379.08 193.305 378.684 193.549 378.44C193.793 378.194 194.188 378.196 194.433 378.438L197.37 381.367C197.614 381.611 197.615 382.006 197.371 382.251C197.249 382.374 197.088 382.435 196.928 382.435Z" fill="#61646B"/>
</g>
</g>
</g>
</g>
</g>
<path id="Label_2" d="M209.08 378.66C208.28 378.66 207.635 378.537 207.144 378.292C206.653 378.036 206.291 377.609 206.056 377.012C205.832 376.404 205.72 375.567 205.72 374.5C205.72 373.433 205.827 372.601 206.04 372.004C206.253 371.396 206.568 370.969 206.984 370.724C207.4 370.468 207.912 370.34 208.52 370.34C209.139 370.34 209.651 370.468 210.056 370.724C210.472 370.969 210.787 371.396 211 372.004C211.213 372.601 211.32 373.433 211.32 374.5V374.98H207.16C207.16 376.015 207.331 376.729 207.672 377.124C208.024 377.508 208.6 377.7 209.4 377.7H211V378.34C210.765 378.415 210.467 378.484 210.104 378.548C209.741 378.623 209.4 378.66 209.08 378.66ZM207.16 374.02H209.88C209.88 373.295 209.816 372.729 209.688 372.324C209.56 371.919 209.395 371.636 209.192 371.476C208.989 371.305 208.765 371.22 208.52 371.22C208.285 371.22 208.061 371.305 207.848 371.476C207.645 371.636 207.48 371.919 207.352 372.324C207.224 372.729 207.16 373.295 207.16 374.02ZM212.767 378.5V370.5H213.967L214.047 370.98H214.127C214.33 370.777 214.554 370.623 214.799 370.516C215.055 370.399 215.364 370.34 215.727 370.34C216.09 370.34 216.426 370.393 216.735 370.5C217.055 370.596 217.316 370.777 217.519 371.044C217.786 370.809 218.111 370.633 218.495 370.516C218.879 370.399 219.21 370.34 219.487 370.34C219.914 370.34 220.292 370.409 220.623 370.548C220.964 370.676 221.231 370.916 221.423 371.268C221.626 371.609 221.727 372.1 221.727 372.74V378.5H220.287V372.74C220.287 372.367 220.223 372.079 220.095 371.876C219.978 371.663 219.818 371.513 219.615 371.428C219.423 371.343 219.22 371.3 219.007 371.3C218.772 371.3 218.543 371.332 218.319 371.396C218.095 371.46 217.924 371.535 217.807 371.62C217.85 371.737 217.887 371.892 217.919 372.084C217.951 372.276 217.967 372.495 217.967 372.74V378.5H216.527V372.74C216.527 372.367 216.463 372.079 216.335 371.876C216.218 371.663 216.058 371.513 215.855 371.428C215.663 371.343 215.46 371.3 215.247 371.3C215.044 371.3 214.847 371.332 214.655 371.396C214.474 371.46 214.324 371.535 214.207 371.62V378.5H212.767ZM225.574 378.66C225.094 378.66 224.672 378.591 224.31 378.452C223.958 378.313 223.68 378.063 223.478 377.7C223.275 377.327 223.174 376.793 223.174 376.1C223.174 375.428 223.275 374.916 223.478 374.564C223.68 374.201 223.958 373.956 224.31 373.828C224.672 373.689 225.094 373.62 225.574 373.62C225.819 373.62 226.086 373.636 226.374 373.668C226.672 373.7 226.939 373.737 227.174 373.78V373.06C227.174 372.335 227.019 371.86 226.71 371.636C226.411 371.412 225.979 371.3 225.414 371.3H223.814V370.66C224.059 370.575 224.358 370.5 224.71 370.436C225.072 370.372 225.414 370.34 225.734 370.34C226.374 370.34 226.907 370.415 227.334 370.564C227.76 370.703 228.08 370.969 228.294 371.364C228.507 371.748 228.614 372.313 228.614 373.06V378.5H227.414L227.334 378.02H227.254C227.051 378.223 226.8 378.383 226.502 378.5C226.203 378.607 225.894 378.66 225.574 378.66ZM226.054 377.7C226.256 377.7 226.464 377.668 226.678 377.604C226.891 377.529 227.056 377.455 227.174 377.38V374.58H226.054C225.787 374.58 225.542 374.623 225.318 374.708C225.104 374.793 224.934 374.948 224.806 375.172C224.678 375.385 224.614 375.695 224.614 376.1C224.614 376.527 224.678 376.857 224.806 377.092C224.934 377.316 225.104 377.476 225.318 377.572C225.542 377.657 225.787 377.7 226.054 377.7ZM230.457 378.5V370.5H231.897V378.5H230.457ZM230.457 369.38V367.62H231.897V369.38H230.457ZM233.824 378.5V367.3H235.264V378.5H233.824Z" fill="#AFB1B6"/>
</g>
</g>
<g id="Pills_5">
<g id="Pills_6">
<rect x="21" y="425" width="377" height="51" rx="20" fill="#EFEFF0"/>
<g id="Iconly/Light-Outline/Search_3">
<g id="Iconly/Light-Outline/Search_4">
<g id="Search_2">
<g id="Group 3_2">
<mask id="mask2_1_421" style="mask-type:luminance" maskUnits="userSpaceOnUse" x="170" y="442" width="17" height="17">
<path id="Clip 2_2" fill-rule="evenodd" clip-rule="evenodd" d="M170.667 442.167H186.897V458.397H170.667V442.167Z" fill="white"/>
</mask>
<g mask="url(#mask2_1_421)">
<path id="Fill 1_2" fill-rule="evenodd" clip-rule="evenodd" d="M178.782 443.417C174.997 443.417 171.917 446.496 171.917 450.282C171.917 454.067 174.997 457.147 178.782 457.147C182.567 457.147 185.647 454.067 185.647 450.282C185.647 446.496 182.567 443.417 178.782 443.417ZM178.782 458.397C174.307 458.397 170.667 454.757 170.667 450.282C170.667 445.807 174.307 442.167 178.782 442.167C183.257 442.167 186.897 445.807 186.897 450.282C186.897 454.757 183.257 458.397 178.782 458.397Z" fill="#61646B"/>
</g>
</g>
<g id="Group 6_2">
<mask id="mask3_1_421" style="mask-type:luminance" maskUnits="userSpaceOnUse" x="183" y="455" width="5" height="5">
<path id="Clip 5_2" fill-rule="evenodd" clip-rule="evenodd" d="M183.367 455.256H187.553V459.435H183.367V455.256Z" fill="white"/>
</mask>
<g mask="url(#mask3_1_421)">
<path id="Fill 4_2" fill-rule="evenodd" clip-rule="evenodd" d="M186.928 459.435C186.769 459.435 186.609 459.374 186.487 459.252L183.55 456.324C183.306 456.08 183.305 455.684 183.549 455.44C183.793 455.194 184.188 455.196 184.433 455.438L187.37 458.367C187.614 458.611 187.615 459.006 187.371 459.251C187.249 459.374 187.088 459.435 186.928 459.435Z" fill="#61646B"/>
</g>
</g>
</g>
</g>
</g>
<path id="Label_3" d="M196.12 455.5V444.46C196.525 444.343 196.931 444.263 197.336 444.22C197.752 444.167 198.2 444.14 198.68 444.14C199.533 444.14 200.216 444.263 200.728 444.508C201.251 444.753 201.624 445.169 201.848 445.756C202.083 446.332 202.2 447.127 202.2 448.14C202.2 449.175 202.088 449.991 201.864 450.588C201.651 451.185 201.32 451.607 200.872 451.852C200.424 452.097 199.853 452.22 199.16 452.22C198.925 452.22 198.648 452.204 198.328 452.172C198.019 452.14 197.763 452.103 197.56 452.06V455.5H196.12ZM197.56 451.1H198.68C199.16 451.1 199.555 451.015 199.864 450.844C200.173 450.673 200.397 450.375 200.536 449.948C200.685 449.511 200.76 448.908 200.76 448.14C200.76 447.361 200.685 446.759 200.536 446.332C200.397 445.905 200.173 445.607 199.864 445.436C199.555 445.265 199.16 445.18 198.68 445.18H197.56V451.1ZM205.487 455.66C205.007 455.66 204.586 455.591 204.223 455.452C203.871 455.313 203.594 455.063 203.391 454.7C203.189 454.327 203.087 453.793 203.087 453.1C203.087 452.428 203.189 451.916 203.391 451.564C203.594 451.201 203.871 450.956 204.223 450.828C204.586 450.689 205.007 450.62 205.487 450.62C205.733 450.62 205.999 450.636 206.287 450.668C206.586 450.7 206.853 450.737 207.088 450.78V450.06C207.088 449.335 206.933 448.86 206.623 448.636C206.325 448.412 205.893 448.3 205.327 448.3H203.727V447.66C203.973 447.575 204.271 447.5 204.623 447.436C204.986 447.372 205.328 447.34 205.648 447.34C206.288 447.34 206.821 447.415 207.247 447.564C207.674 447.703 207.994 447.969 208.207 448.364C208.421 448.748 208.528 449.313 208.528 450.06V455.5H207.327L207.247 455.02H207.168C206.965 455.223 206.714 455.383 206.416 455.5C206.117 455.607 205.807 455.66 205.487 455.66ZM205.967 454.7C206.17 454.7 206.378 454.668 206.591 454.604C206.805 454.529 206.97 454.455 207.088 454.38V451.58H205.967C205.701 451.58 205.455 451.623 205.231 451.708C205.018 451.793 204.847 451.948 204.719 452.172C204.591 452.385 204.527 452.695 204.527 453.1C204.527 453.527 204.591 453.857 204.719 454.092C204.847 454.316 205.018 454.476 205.231 454.572C205.455 454.657 205.701 454.7 205.967 454.7ZM211.811 455.66C211.491 455.66 211.149 455.623 210.787 455.548C210.435 455.484 210.136 455.415 209.891 455.34V454.7H211.491C212.216 454.7 212.744 454.609 213.075 454.428C213.405 454.236 213.571 453.9 213.571 453.42C213.571 453.1 213.48 452.844 213.299 452.652C213.117 452.46 212.883 452.3 212.595 452.172C212.317 452.033 212.013 451.905 211.683 451.788C211.363 451.66 211.059 451.505 210.771 451.324C210.493 451.132 210.264 450.887 210.083 450.588C209.901 450.289 209.811 449.9 209.811 449.42C209.811 448.62 210.051 448.076 210.531 447.788C211.011 447.489 211.731 447.34 212.691 447.34C213.011 447.34 213.352 447.372 213.715 447.436C214.077 447.5 214.376 447.575 214.611 447.66V448.3H213.011C212.456 448.3 212.024 448.385 211.715 448.556C211.405 448.727 211.251 449.015 211.251 449.42C211.251 449.74 211.341 449.996 211.523 450.188C211.704 450.38 211.933 450.545 212.211 450.684C212.499 450.812 212.803 450.94 213.123 451.068C213.453 451.185 213.757 451.34 214.035 451.532C214.323 451.713 214.557 451.953 214.739 452.252C214.92 452.551 215.011 452.94 215.011 453.42C215.011 454.007 214.899 454.465 214.675 454.796C214.451 455.116 214.104 455.34 213.635 455.468C213.165 455.596 212.557 455.66 211.811 455.66ZM217.491 455.66C217.171 455.66 216.829 455.623 216.467 455.548C216.115 455.484 215.816 455.415 215.571 455.34V454.7H217.171C217.896 454.7 218.424 454.609 218.755 454.428C219.085 454.236 219.251 453.9 219.251 453.42C219.251 453.1 219.16 452.844 218.979 452.652C218.797 452.46 218.563 452.3 218.275 452.172C217.997 452.033 217.693 451.905 217.363 451.788C217.043 451.66 216.739 451.505 216.451 451.324C216.173 451.132 215.944 450.887 215.763 450.588C215.581 450.289 215.491 449.9 215.491 449.42C215.491 448.62 215.731 448.076 216.211 447.788C216.691 447.489 217.411 447.34 218.371 447.34C218.691 447.34 219.032 447.372 219.395 447.436C219.757 447.5 220.056 447.575 220.291 447.66V448.3H218.691C218.136 448.3 217.704 448.385 217.395 448.556C217.085 448.727 216.931 449.015 216.931 449.42C216.931 449.74 217.021 449.996 217.203 450.188C217.384 450.38 217.613 450.545 217.891 450.684C218.179 450.812 218.483 450.94 218.803 451.068C219.133 451.185 219.437 451.34 219.715 451.532C220.003 451.713 220.237 451.953 220.419 452.252C220.6 452.551 220.691 452.94 220.691 453.42C220.691 454.007 220.579 454.465 220.355 454.796C220.131 455.116 219.784 455.34 219.315 455.468C218.845 455.596 218.237 455.66 217.491 455.66ZM222.603 455.5L221.163 447.5H222.523L223.627 453.58H223.707L225.163 449.1H226.443L227.899 453.58H227.979L229.083 447.5H230.443L229.003 455.5H227.243L225.835 451.18H225.771L224.363 455.5H222.603ZM234.049 455.66C233.409 455.66 232.87 455.532 232.433 455.276C231.995 455.009 231.659 454.572 231.425 453.964C231.201 453.356 231.089 452.535 231.089 451.5C231.089 450.455 231.201 449.633 231.425 449.036C231.659 448.428 231.995 447.996 232.433 447.74C232.87 447.473 233.409 447.34 234.049 447.34C234.689 447.34 235.227 447.473 235.665 447.74C236.113 447.996 236.449 448.428 236.673 449.036C236.897 449.633 237.009 450.455 237.009 451.5C237.009 452.535 236.897 453.356 236.673 453.964C236.449 454.572 236.113 455.009 235.665 455.276C235.227 455.532 234.689 455.66 234.049 455.66ZM234.049 454.78C234.315 454.78 234.561 454.684 234.785 454.492C235.019 454.3 235.206 453.969 235.345 453.5C235.494 453.02 235.569 452.353 235.569 451.5C235.569 450.647 235.494 449.985 235.345 449.516C235.206 449.036 235.019 448.7 234.785 448.508C234.561 448.316 234.315 448.22 234.049 448.22C233.782 448.22 233.531 448.316 233.297 448.508C233.073 448.7 232.886 449.036 232.737 449.516C232.598 449.985 232.529 450.647 232.529 451.5C232.529 452.353 232.598 453.02 232.737 453.5C232.886 453.969 233.073 454.3 233.297 454.492C233.531 454.684 233.782 454.78 234.049 454.78ZM238.448 455.5V447.5H239.664L239.744 448.14H239.824C240.016 447.98 240.272 447.836 240.592 447.708C240.923 447.569 241.328 447.5 241.808 447.5H242.608V448.7H241.008C240.805 448.7 240.608 448.727 240.416 448.78C240.224 448.823 240.048 448.903 239.888 449.02V455.5H238.448ZM245.807 455.66C245.253 455.66 244.778 455.537 244.383 455.292C243.989 455.036 243.685 454.609 243.471 454.012C243.269 453.404 243.167 452.567 243.167 451.5C243.167 450.433 243.269 449.601 243.471 449.004C243.685 448.396 243.989 447.969 244.383 447.724C244.778 447.468 245.253 447.34 245.807 447.34C246.127 447.34 246.415 447.377 246.671 447.452C246.927 447.527 247.173 447.623 247.407 447.74V444.3H248.847V455.5H247.647L247.567 455.02H247.487C247.285 455.223 247.034 455.383 246.735 455.5C246.437 455.607 246.127 455.66 245.807 455.66ZM246.287 454.7C246.49 454.7 246.698 454.668 246.911 454.604C247.125 454.529 247.29 454.455 247.407 454.38V448.62C247.29 448.535 247.125 448.46 246.911 448.396C246.698 448.332 246.49 448.3 246.287 448.3C245.946 448.3 245.647 448.391 245.391 448.572C245.135 448.743 244.938 449.063 244.799 449.532C244.671 449.991 244.607 450.647 244.607 451.5C244.607 452.353 244.671 453.015 244.799 453.484C244.938 453.943 245.135 454.263 245.391 454.444C245.647 454.615 245.946 454.7 246.287 454.7Z" fill="#AFB1B6"/>
</g>
</g>
<g id="Group 21">
<path id="Vector" d="M361.22 456.137C363.609 456.137 365.545 454.201 365.545 451.812C365.545 449.424 363.609 447.487 361.22 447.487C358.831 447.487 356.895 449.424 356.895 451.812C356.895 454.201 358.831 456.137 361.22 456.137Z" fill="#92400E"/>
<path id="Vector_2" d="M377.09 450.637C375.302 447.871 372.982 445.522 370.382 443.843C367.505 441.983 364.329 441 361.197 441C358.324 441 355.498 441.821 352.799 443.44C350.047 445.091 347.553 447.503 345.387 450.608C345.143 450.959 345.008 451.375 345 451.803C344.993 452.23 345.112 452.65 345.344 453.01C347.129 455.803 349.426 458.155 351.986 459.812C354.868 461.679 357.97 462.625 361.197 462.625C364.354 462.625 367.537 461.65 370.401 459.806C373 458.132 375.316 455.774 377.097 452.986C377.321 452.634 377.439 452.227 377.438 451.81C377.437 451.394 377.316 450.987 377.09 450.637ZM361.22 458.3C359.937 458.3 358.683 457.92 357.616 457.207C356.549 456.494 355.717 455.481 355.226 454.295C354.735 453.11 354.607 451.805 354.857 450.547C355.108 449.288 355.725 448.132 356.633 447.225C357.54 446.318 358.696 445.7 359.954 445.45C361.213 445.199 362.517 445.328 363.703 445.819C364.888 446.31 365.901 447.141 366.614 448.208C367.327 449.275 367.708 450.529 367.708 451.812C367.706 453.532 367.021 455.181 365.805 456.398C364.589 457.614 362.94 458.298 361.22 458.3Z" fill="#92400E"/>
</g>
<path id="CHEESELY" d="M94.3926 228.75C90.5426 228.75 87.2926 227.975 84.6426 226.425C82.0426 224.825 80.0676 222.075 78.7176 218.175C77.4176 214.225 76.7676 208.75 76.7676 201.75C76.7676 194.75 77.4176 189.3 78.7176 185.4C80.0176 181.45 81.9176 178.7 84.4176 177.15C86.9676 175.55 90.0426 174.75 93.6426 174.75C96.2926 174.75 98.6676 174.9 100.768 175.2C102.918 175.5 104.543 175.85 105.643 176.25V180.375H96.6426C94.5426 180.375 92.6676 181 91.0176 182.25C89.3676 183.45 88.0676 185.6 87.1176 188.7C86.2176 191.75 85.7676 196.1 85.7676 201.75C85.7676 207.35 86.2426 211.7 87.1926 214.8C88.1426 217.9 89.4926 220.075 91.2426 221.325C92.9926 222.525 95.0426 223.125 97.3926 223.125H106.393V227.25C105.293 227.6 103.668 227.925 101.518 228.225C99.4176 228.575 97.0426 228.75 94.3926 228.75ZM111.273 228V175.5H120.273V198.375H133.773V175.5H142.773V228H133.773V204.375H120.273V228H111.273ZM151.741 228V175.5H179.116V181.5H160.741V197.625H176.866V203.625H160.741V222H179.116V228H151.741ZM185.837 228V175.5H213.212V181.5H194.837V197.625H210.962V203.625H194.837V222H213.212V228H185.837ZM229.308 228.75C226.708 228.75 224.333 228.575 222.183 228.225C220.083 227.925 218.458 227.6 217.308 227.25V223.125H227.808C231.558 223.125 234.233 222.4 235.833 220.95C237.483 219.45 238.308 217.3 238.308 214.5C238.308 212.45 237.783 210.8 236.733 209.55C235.733 208.3 234.408 207.25 232.758 206.4C231.158 205.55 229.433 204.725 227.583 203.925C225.783 203.075 224.058 202.05 222.408 200.85C220.808 199.6 219.483 198 218.433 196.05C217.433 194.05 216.933 191.45 216.933 188.25C216.933 184.1 218.233 180.825 220.833 178.425C223.433 175.975 227.258 174.75 232.308 174.75C234.958 174.75 237.333 174.9 239.433 175.2C241.583 175.5 243.208 175.85 244.308 176.25V180.375H233.808C231.358 180.375 229.433 181.075 228.033 182.475C226.633 183.875 225.933 185.8 225.933 188.25C225.933 190.45 226.433 192.225 227.433 193.575C228.483 194.875 229.808 195.975 231.408 196.875C233.058 197.725 234.783 198.575 236.583 199.425C238.433 200.225 240.158 201.225 241.758 202.425C243.408 203.625 244.733 205.175 245.733 207.075C246.783 208.975 247.308 211.45 247.308 214.5C247.308 219 245.908 222.5 243.108 225C240.308 227.5 235.708 228.75 229.308 228.75ZM253.296 228V175.5H280.671V181.5H262.296V197.625H278.421V203.625H262.296V222H280.671V228H253.296ZM287.392 228V175.5H296.392V222H314.767V228H287.392ZM323.072 228V212.25L309.947 175.5H319.322L327.572 201.075L335.822 175.5H345.197L332.072 212.25V228H323.072Z" fill="#92400E"/>
<path id="DISCOVER CREATE SHARE CHEESE" d="M136.388 258.24C135.492 258.24 134.716 258.2 134.06 258.12C133.42 258.056 132.796 257.936 132.188 257.76V241.44C132.796 241.264 133.42 241.144 134.06 241.08C134.716 241 135.492 240.96 136.388 240.96C137.716 240.96 138.828 241.232 139.724 241.776C140.636 242.32 141.324 243.224 141.788 244.488C142.268 245.736 142.508 247.44 142.508 249.6C142.508 251.76 142.268 253.472 141.788 254.736C141.324 256 140.636 256.904 139.724 257.448C138.828 257.976 137.716 258.24 136.388 258.24ZM135.068 256.44H136.388C137.028 256.44 137.588 256.248 138.068 255.864C138.564 255.464 138.948 254.768 139.22 253.776C139.492 252.784 139.628 251.392 139.628 249.6C139.628 247.792 139.492 246.4 139.22 245.424C138.948 244.432 138.564 243.744 138.068 243.36C137.588 242.96 137.028 242.76 136.388 242.76H135.068V256.44ZM144.787 258V241.2H147.667V258H144.787ZM153.541 258.24C152.709 258.24 151.949 258.184 151.261 258.072C150.589 257.976 150.069 257.872 149.701 257.76V256.44H153.061C154.261 256.44 155.117 256.208 155.629 255.744C156.157 255.264 156.421 254.576 156.421 253.68C156.421 253.024 156.253 252.496 155.917 252.096C155.597 251.696 155.173 251.36 154.645 251.088C154.133 250.816 153.581 250.552 152.989 250.296C152.413 250.024 151.861 249.696 151.333 249.312C150.821 248.912 150.397 248.4 150.061 247.776C149.741 247.136 149.581 246.304 149.581 245.28C149.581 243.952 149.997 242.904 150.829 242.136C151.661 241.352 152.885 240.96 154.501 240.96C155.349 240.96 156.109 241.008 156.781 241.104C157.469 241.2 157.989 241.312 158.341 241.44V242.76H154.981C154.197 242.76 153.581 242.984 153.133 243.432C152.685 243.88 152.461 244.496 152.461 245.28C152.461 245.984 152.621 246.552 152.941 246.984C153.277 247.4 153.701 247.752 154.213 248.04C154.741 248.312 155.293 248.584 155.869 248.856C156.461 249.112 157.013 249.432 157.525 249.816C158.053 250.2 158.477 250.696 158.797 251.304C159.133 251.912 159.301 252.704 159.301 253.68C159.301 255.12 158.853 256.24 157.957 257.04C157.061 257.84 155.589 258.24 153.541 258.24ZM166.257 258.24C165.025 258.24 163.985 257.992 163.137 257.496C162.305 256.984 161.673 256.104 161.241 254.856C160.825 253.592 160.617 251.84 160.617 249.6C160.617 247.36 160.825 245.616 161.241 244.368C161.657 243.104 162.265 242.224 163.065 241.728C163.881 241.216 164.865 240.96 166.017 240.96C166.865 240.96 167.625 241.008 168.297 241.104C168.985 241.2 169.505 241.312 169.857 241.44V242.76H166.977C166.305 242.76 165.705 242.96 165.177 243.36C164.649 243.744 164.233 244.432 163.929 245.424C163.641 246.4 163.497 247.792 163.497 249.6C163.497 251.392 163.649 252.784 163.953 253.776C164.257 254.768 164.689 255.464 165.249 255.864C165.809 256.248 166.465 256.44 167.217 256.44H170.097V257.76C169.745 257.872 169.225 257.976 168.537 258.072C167.865 258.184 167.105 258.24 166.257 258.24ZM176.11 258.24C174.99 258.24 174.014 257.976 173.182 257.448C172.366 256.904 171.726 256 171.262 254.736C170.814 253.472 170.59 251.76 170.59 249.6C170.59 247.44 170.814 245.736 171.262 244.488C171.726 243.224 172.366 242.32 173.182 241.776C174.014 241.232 174.99 240.96 176.11 240.96C177.23 240.96 178.198 241.232 179.014 241.776C179.846 242.32 180.486 243.224 180.934 244.488C181.398 245.736 181.63 247.44 181.63 249.6C181.63 251.76 181.398 253.472 180.934 254.736C180.486 256 179.846 256.904 179.014 257.448C178.198 257.976 177.23 258.24 176.11 258.24ZM176.11 256.56C176.446 256.56 176.766 256.456 177.07 256.248C177.39 256.024 177.67 255.656 177.91 255.144C178.166 254.632 178.366 253.928 178.51 253.032C178.67 252.12 178.75 250.976 178.75 249.6C178.75 248.224 178.67 247.088 178.51 246.192C178.366 245.28 178.166 244.568 177.91 244.056C177.67 243.544 177.39 243.184 177.07 242.976C176.766 242.752 176.446 242.64 176.11 242.64C175.774 242.64 175.446 242.752 175.126 242.976C174.822 243.184 174.542 243.544 174.286 244.056C174.046 244.568 173.846 245.28 173.686 246.192C173.542 247.088 173.47 248.224 173.47 249.6C173.47 250.976 173.542 252.12 173.686 253.032C173.846 253.928 174.046 254.632 174.286 255.144C174.542 255.656 174.822 256.024 175.126 256.248C175.446 256.456 175.774 256.56 176.11 256.56ZM186.431 258L182.351 241.2H185.351L188.183 254.28H188.279L191.111 241.2H194.111L190.031 258H186.431ZM195.66 258V241.2H204.42V243.12H198.54V248.28H203.7V250.2H198.54V256.08H204.42V258H195.66ZM206.571 258V241.44C207.179 241.264 207.803 241.144 208.443 241.08C209.099 241 209.875 240.96 210.771 240.96C212.099 240.96 213.171 241.16 213.987 241.56C214.819 241.944 215.427 242.56 215.811 243.408C216.211 244.256 216.411 245.36 216.411 246.72C216.411 247.792 216.299 248.68 216.075 249.384C215.851 250.072 215.539 250.624 215.139 251.04C214.755 251.44 214.299 251.76 213.771 252L217.011 258H213.771L211.011 252.6H209.451V258H206.571ZM209.451 250.68H210.771C211.667 250.68 212.347 250.4 212.811 249.84C213.291 249.264 213.531 248.224 213.531 246.72C213.531 245.712 213.427 244.92 213.219 244.344C213.011 243.768 212.699 243.36 212.283 243.12C211.883 242.88 211.379 242.76 210.771 242.76H209.451V250.68ZM229.494 258.24C228.262 258.24 227.222 257.992 226.374 257.496C225.542 256.984 224.91 256.104 224.478 254.856C224.062 253.592 223.854 251.84 223.854 249.6C223.854 247.36 224.062 245.616 224.478 244.368C224.894 243.104 225.502 242.224 226.302 241.728C227.118 241.216 228.102 240.96 229.254 240.96C230.102 240.96 230.862 241.008 231.534 241.104C232.222 241.2 232.742 241.312 233.094 241.44V242.76H230.214C229.542 242.76 228.942 242.96 228.414 243.36C227.886 243.744 227.47 244.432 227.166 245.424C226.878 246.4 226.734 247.792 226.734 249.6C226.734 251.392 226.886 252.784 227.19 253.776C227.494 254.768 227.926 255.464 228.486 255.864C229.046 256.248 229.702 256.44 230.454 256.44H233.334V257.76C232.982 257.872 232.462 257.976 231.774 258.072C231.102 258.184 230.342 258.24 229.494 258.24ZM234.896 258V241.44C235.504 241.264 236.128 241.144 236.768 241.08C237.424 241 238.2 240.96 239.096 240.96C240.424 240.96 241.496 241.16 242.312 241.56C243.144 241.944 243.752 242.56 244.136 243.408C244.536 244.256 244.736 245.36 244.736 246.72C244.736 247.792 244.624 248.68 244.4 249.384C244.176 250.072 243.864 250.624 243.464 251.04C243.08 251.44 242.624 251.76 242.096 252L245.336 258H242.096L239.336 252.6H237.776V258H234.896ZM237.776 250.68H239.096C239.992 250.68 240.672 250.4 241.136 249.84C241.616 249.264 241.856 248.224 241.856 246.72C241.856 245.712 241.752 244.92 241.544 244.344C241.336 243.768 241.024 243.36 240.608 243.12C240.208 242.88 239.704 242.76 239.096 242.76H237.776V250.68ZM247.26 258V241.2H256.02V243.12H250.14V248.28H255.3V250.2H250.14V256.08H256.02V258H247.26ZM256.851 258L261.171 241.2H264.771L269.091 258H266.091L265.035 253.8H260.907L259.851 258H256.851ZM261.291 251.88H264.627L263.019 245.04H262.923L261.291 251.88ZM271.736 258V243.12H268.016V241.2H278.336V243.12H274.616V258H271.736ZM279.781 258V241.2H288.541V243.12H282.661V248.28H287.821V250.2H282.661V256.08H288.541V258H279.781ZM148.59 286.24C147.758 286.24 146.998 286.184 146.31 286.072C145.638 285.976 145.118 285.872 144.75 285.76V284.44H148.11C149.31 284.44 150.166 284.208 150.678 283.744C151.206 283.264 151.47 282.576 151.47 281.68C151.47 281.024 151.302 280.496 150.966 280.096C150.646 279.696 150.222 279.36 149.694 279.088C149.182 278.816 148.63 278.552 148.038 278.296C147.462 278.024 146.91 277.696 146.382 277.312C145.87 276.912 145.446 276.4 145.11 275.776C144.79 275.136 144.63 274.304 144.63 273.28C144.63 271.952 145.046 270.904 145.878 270.136C146.71 269.352 147.934 268.96 149.55 268.96C150.398 268.96 151.158 269.008 151.83 269.104C152.518 269.2 153.038 269.312 153.39 269.44V270.76H150.03C149.246 270.76 148.63 270.984 148.182 271.432C147.734 271.88 147.51 272.496 147.51 273.28C147.51 273.984 147.67 274.552 147.99 274.984C148.326 275.4 148.75 275.752 149.262 276.04C149.79 276.312 150.342 276.584 150.918 276.856C151.51 277.112 152.062 277.432 152.574 277.816C153.102 278.2 153.526 278.696 153.846 279.304C154.182 279.912 154.35 280.704 154.35 281.68C154.35 283.12 153.902 284.24 153.006 285.04C152.11 285.84 150.638 286.24 148.59 286.24ZM156.266 286V269.2H159.146V276.52H163.466V269.2H166.346V286H163.466V278.44H159.146V286H156.266ZM167.895 286L172.215 269.2H175.815L180.135 286H177.135L176.079 281.8H171.951L170.895 286H167.895ZM172.335 279.88H175.671L174.063 273.04H173.967L172.335 279.88ZM181.696 286V269.44C182.304 269.264 182.928 269.144 183.568 269.08C184.224 269 185 268.96 185.896 268.96C187.224 268.96 188.296 269.16 189.112 269.56C189.944 269.944 190.552 270.56 190.936 271.408C191.336 272.256 191.536 273.36 191.536 274.72C191.536 275.792 191.424 276.68 191.2 277.384C190.976 278.072 190.664 278.624 190.264 279.04C189.88 279.44 189.424 279.76 188.896 280L192.136 286H188.896L186.136 280.6H184.576V286H181.696ZM184.576 278.68H185.896C186.792 278.68 187.472 278.4 187.936 277.84C188.416 277.264 188.656 276.224 188.656 274.72C188.656 273.712 188.552 272.92 188.344 272.344C188.136 271.768 187.824 271.36 187.408 271.12C187.008 270.88 186.504 270.76 185.896 270.76H184.576V278.68ZM194.06 286V269.2H202.82V271.12H196.94V276.28H202.1V278.2H196.94V284.08H202.82V286H194.06ZM215.531 286.24C214.299 286.24 213.259 285.992 212.411 285.496C211.579 284.984 210.947 284.104 210.515 282.856C210.099 281.592 209.891 279.84 209.891 277.6C209.891 275.36 210.099 273.616 210.515 272.368C210.931 271.104 211.539 270.224 212.339 269.728C213.155 269.216 214.139 268.96 215.291 268.96C216.139 268.96 216.899 269.008 217.571 269.104C218.259 269.2 218.779 269.312 219.131 269.44V270.76H216.251C215.579 270.76 214.979 270.96 214.451 271.36C213.923 271.744 213.507 272.432 213.203 273.424C212.915 274.4 212.771 275.792 212.771 277.6C212.771 279.392 212.923 280.784 213.227 281.776C213.531 282.768 213.963 283.464 214.523 283.864C215.083 284.248 215.739 284.44 216.491 284.44H219.371V285.76C219.019 285.872 218.499 285.976 217.811 286.072C217.139 286.184 216.379 286.24 215.531 286.24ZM220.933 286V269.2H223.813V276.52H228.133V269.2H231.013V286H228.133V278.44H223.813V286H220.933ZM233.882 286V269.2H242.642V271.12H236.762V276.28H241.922V278.2H236.762V284.08H242.642V286H233.882ZM244.793 286V269.2H253.553V271.12H247.673V276.28H252.833V278.2H247.673V284.08H253.553V286H244.793ZM258.704 286.24C257.872 286.24 257.112 286.184 256.424 286.072C255.752 285.976 255.232 285.872 254.864 285.76V284.44H258.224C259.424 284.44 260.28 284.208 260.792 283.744C261.32 283.264 261.584 282.576 261.584 281.68C261.584 281.024 261.416 280.496 261.08 280.096C260.76 279.696 260.336 279.36 259.808 279.088C259.296 278.816 258.744 278.552 258.152 278.296C257.576 278.024 257.024 277.696 256.496 277.312C255.984 276.912 255.56 276.4 255.224 275.776C254.904 275.136 254.744 274.304 254.744 273.28C254.744 271.952 255.16 270.904 255.992 270.136C256.824 269.352 258.048 268.96 259.664 268.96C260.512 268.96 261.272 269.008 261.944 269.104C262.632 269.2 263.152 269.312 263.504 269.44V270.76H260.144C259.36 270.76 258.744 270.984 258.296 271.432C257.848 271.88 257.624 272.496 257.624 273.28C257.624 273.984 257.784 274.552 258.104 274.984C258.44 275.4 258.864 275.752 259.376 276.04C259.904 276.312 260.456 276.584 261.032 276.856C261.624 277.112 262.176 277.432 262.688 277.816C263.216 278.2 263.64 278.696 263.96 279.304C264.296 279.912 264.464 280.704 264.464 281.68C264.464 283.12 264.016 284.24 263.12 285.04C262.224 285.84 260.752 286.24 258.704 286.24ZM266.38 286V269.2H275.14V271.12H269.26V276.28H274.42V278.2H269.26V284.08H275.14V286H266.38Z" fill="#92400E"/>
<g id="Mobile Nav Text + Icon">
<g id="Mobile Nav Text + Icon_2">
<mask id="path-22-inside-1_1_421" fill="white">
<path d="M1 792H415V896H1V792Z"/>
</mask>
<path d="M1 792H415V896H1V792Z" fill="#FEF3C7"/>
<path d="M1 792V793H415V792V791H1V792Z" fill="#EFEFF0" mask="url(#path-22-inside-1_1_421)"/>
<g id="Component 27">
<g id="Iconly/Light-Outline/Home">
<g id="Iconly/Light-Outline/Home_2">
<g id="Home">
<mask id="mask4_1_421" style="mask-type:luminance" maskUnits="userSpaceOnUse" x="39" y="809" width="25" height="26">
<path id="Clip 2_3" fill-rule="evenodd" clip-rule="evenodd" d="M39.8333 809.167H63.7498V834.256H39.8333V809.167Z" fill="white"/>
</mask>
<g mask="url(#mask4_1_421)">
<path id="Fill 1_3" fill-rule="evenodd" clip-rule="evenodd" d="M53.5029 825.84C54.9076 825.84 56.0509 826.975 56.0509 828.37V831.959C56.0509 832.259 56.2913 832.499 56.5993 832.506H58.8229C60.5753 832.506 61.9998 831.099 61.9998 829.37V819.192C61.9916 818.597 61.7081 818.037 61.2216 817.665L53.5298 811.531C52.4973 810.713 51.0529 810.713 50.0169 811.533L42.3776 817.663C41.8724 818.046 41.5889 818.606 41.5831 819.212V829.37C41.5831 831.099 43.0076 832.506 44.7599 832.506H47.0046C47.3208 832.506 47.5774 832.255 47.5774 831.947C47.5774 831.88 47.5856 831.812 47.5996 831.748V828.37C47.5996 826.983 48.7359 825.849 50.1301 825.84H53.5029ZM58.8229 834.256H56.5783C55.2926 834.226 54.3009 833.217 54.3009 831.959V828.37C54.3009 827.94 53.9428 827.59 53.5029 827.59H50.1359C49.7054 827.592 49.3496 827.943 49.3496 828.37V831.947C49.3496 832.035 49.3379 832.119 49.3134 832.198C49.1874 833.353 48.2004 834.256 47.0046 834.256H44.7599C42.0428 834.256 39.8331 832.064 39.8331 829.37V819.204C39.8448 818.044 40.3791 816.982 41.3019 816.284L48.9261 810.164C50.6049 808.834 52.9441 808.834 54.6194 810.162L62.2984 816.287C63.2003 816.974 63.7346 818.034 63.7498 819.179V829.37C63.7498 832.064 61.5401 834.256 58.8229 834.256V834.256Z" fill="#92400E"/>
</g>
</g>
</g>
</g>
<g id="Frame 622">
<g id="Frame 205">
<path id="Active" d="M41.1293 846.08V854H39.8333V846.08H41.1293ZM35.9213 846.08V854H34.6373V846.08H35.9213ZM40.4813 849.44V850.544H35.2853V849.44H40.4813ZM46.4152 847.88C46.9992 847.88 47.5152 848.004 47.9632 848.252C48.4112 848.5 48.7592 848.86 49.0072 849.332C49.2632 849.796 49.3912 850.352 49.3912 851C49.3912 851.648 49.2632 852.208 49.0072 852.68C48.7592 853.144 48.4112 853.5 47.9632 853.748C47.5152 853.996 46.9992 854.12 46.4152 854.12C45.8312 854.12 45.3152 853.996 44.8672 853.748C44.4192 853.5 44.0672 853.144 43.8112 852.68C43.5552 852.208 43.4272 851.648 43.4272 851C43.4272 850.352 43.5552 849.796 43.8112 849.332C44.0672 848.86 44.4192 848.5 44.8672 848.252C45.3152 848.004 45.8312 847.88 46.4152 847.88ZM46.4152 848.888C46.0552 848.888 45.7472 848.972 45.4912 849.14C45.2432 849.3 45.0512 849.536 44.9152 849.848C44.7792 850.16 44.7112 850.544 44.7112 851C44.7112 851.448 44.7792 851.832 44.9152 852.152C45.0512 852.464 45.2432 852.704 45.4912 852.872C45.7472 853.032 46.0552 853.112 46.4152 853.112C46.7752 853.112 47.0792 853.032 47.3272 852.872C47.5752 852.704 47.7672 852.464 47.9032 852.152C48.0392 851.832 48.1072 851.448 48.1072 851C48.1072 850.544 48.0392 850.16 47.9032 849.848C47.7672 849.536 47.5752 849.3 47.3272 849.14C47.0792 848.972 46.7752 848.888 46.4152 848.888ZM51.6065 854V848H52.7465L52.8065 849.008C53.0145 848.624 53.2905 848.34 53.6345 848.156C53.9865 847.972 54.3585 847.88 54.7505 847.88C55.1825 847.88 55.5785 847.98 55.9385 848.18C56.3065 848.372 56.5825 848.664 56.7665 849.056C56.8945 848.792 57.0705 848.572 57.2945 848.396C57.5185 848.22 57.7665 848.092 58.0385 848.012C58.3105 847.924 58.5785 847.88 58.8425 847.88C59.2265 847.88 59.5865 847.96 59.9225 848.12C60.2585 848.28 60.5305 848.524 60.7385 848.852C60.9465 849.18 61.0505 849.6 61.0505 850.112V854H59.7665V850.316C59.7665 849.828 59.6505 849.476 59.4185 849.26C59.1865 849.044 58.8905 848.936 58.5305 848.936C58.2505 848.936 57.9905 849.004 57.7505 849.14C57.5185 849.276 57.3305 849.48 57.1865 849.752C57.0425 850.016 56.9705 850.344 56.9705 850.736V854H55.6865V850.316C55.6865 849.828 55.5705 849.476 55.3385 849.26C55.1065 849.044 54.8105 848.936 54.4505 848.936C54.2105 848.936 53.9705 849 53.7305 849.128C53.4905 849.256 53.2905 849.456 53.1305 849.728C52.9705 850 52.8905 850.36 52.8905 850.808V854H51.6065ZM66.2372 854.12C65.6372 854.12 65.1092 853.996 64.6532 853.748C64.1972 853.5 63.8412 853.144 63.5852 852.68C63.3372 852.208 63.2132 851.648 63.2132 851C63.2132 850.352 63.3372 849.796 63.5852 849.332C63.8412 848.86 64.1932 848.5 64.6412 848.252C65.0892 848.004 65.5972 847.88 66.1652 847.88C66.7492 847.88 67.2452 848 67.6532 848.24C68.0612 848.48 68.3732 848.808 68.5892 849.224C68.8052 849.64 68.9132 850.112 68.9132 850.64C68.9132 850.784 68.9092 850.92 68.9012 851.048C68.8932 851.176 68.8812 851.288 68.8652 851.384H64.0412V850.4H68.3012L67.6652 850.592C67.6652 850.048 67.5292 849.632 67.2572 849.344C66.9852 849.048 66.6132 848.9 66.1412 848.9C65.7972 848.9 65.4972 848.98 65.2412 849.14C64.9852 849.3 64.7892 849.54 64.6532 849.86C64.5172 850.172 64.4492 850.556 64.4492 851.012C64.4492 851.46 64.5212 851.84 64.6652 852.152C64.8092 852.464 65.0132 852.7 65.2772 852.86C65.5412 853.02 65.8532 853.1 66.2132 853.1C66.6132 853.1 66.9372 853.024 67.1852 852.872C67.4332 852.72 67.6292 852.508 67.7732 852.236L68.7932 852.716C68.6492 853.004 68.4532 853.256 68.2052 853.472C67.9652 853.68 67.6772 853.84 67.3412 853.952C67.0052 854.064 66.6372 854.12 66.2372 854.12Z" fill="#92400E"/>
</g>
</g>
</g>
<g id="Component 28">
<g id="Discovery">
<g id="Iconly/Bold/Discovery">
<g id="Discovery_2">
<path id="Vector_3" d="M153.833 810.333C160.273 810.333 165.5 815.56 165.5 822C165.5 828.452 160.273 833.667 153.833 833.667C147.382 833.667 142.167 828.452 142.167 822C142.167 815.56 147.382 810.333 153.833 810.333ZM158.325 818.162C158.453 817.753 158.08 817.368 157.672 817.497L151.698 819.363C151.453 819.445 151.255 819.632 151.185 819.877L149.318 825.862C149.19 826.258 149.575 826.643 149.972 826.515L155.922 824.648C156.167 824.578 156.365 824.38 156.435 824.135L158.325 818.162Z" fill="#92400E"/>
</g>
</g>
</g>
<g id="Frame 623">
<g id="Frame 205_2">
<path id="Inactive" d="M130.991 854V846.08H136.727V847.184H132.275V849.464H135.755V850.544H132.275V852.896H136.895V854H130.991ZM139.976 848L141.668 850.568L141.908 850.604L144.344 854H142.82L141.056 851.36L140.78 851.264L138.428 848H139.976ZM144.308 848L141.956 851.216L141.692 851.204L139.772 854H138.308L140.864 850.58L141.116 850.604L142.832 848H144.308ZM146.237 856.52V848H147.377L147.473 849.68L147.305 849.476C147.401 849.164 147.549 848.888 147.749 848.648C147.949 848.408 148.197 848.22 148.493 848.084C148.797 847.948 149.129 847.88 149.489 847.88C149.977 847.88 150.421 848.004 150.821 848.252C151.221 848.5 151.537 848.856 151.769 849.32C152.001 849.776 152.117 850.332 152.117 850.988C152.117 851.644 151.997 852.208 151.757 852.68C151.525 853.144 151.205 853.5 150.797 853.748C150.397 853.996 149.949 854.12 149.453 854.12C148.941 854.12 148.505 853.988 148.145 853.724C147.785 853.452 147.529 853.108 147.377 852.692L147.521 852.488V856.52H146.237ZM149.177 853.076C149.697 853.076 150.101 852.892 150.389 852.524C150.685 852.156 150.833 851.648 150.833 851C150.833 850.352 150.689 849.844 150.401 849.476C150.113 849.1 149.713 848.912 149.201 848.912C148.865 848.912 148.569 849 148.313 849.176C148.065 849.344 147.869 849.584 147.725 849.896C147.589 850.2 147.521 850.568 147.521 851C147.521 851.424 147.589 851.792 147.725 852.104C147.861 852.416 148.053 852.656 148.301 852.824C148.549 852.992 148.841 853.076 149.177 853.076ZM155.609 845.3V852.32C155.609 852.616 155.661 852.82 155.765 852.932C155.869 853.044 156.041 853.1 156.281 853.1C156.425 853.1 156.545 853.092 156.641 853.076C156.745 853.052 156.873 853.012 157.025 852.956L156.881 853.916C156.745 853.98 156.589 854.028 156.413 854.06C156.237 854.1 156.061 854.12 155.885 854.12C155.349 854.12 154.953 853.984 154.697 853.712C154.449 853.432 154.325 853.004 154.325 852.428V845.3H155.609ZM161.303 847.88C161.887 847.88 162.403 848.004 162.851 848.252C163.299 848.5 163.647 848.86 163.895 849.332C164.151 849.796 164.279 850.352 164.279 851C164.279 851.648 164.151 852.208 163.895 852.68C163.647 853.144 163.299 853.5 162.851 853.748C162.403 853.996 161.887 854.12 161.303 854.12C160.719 854.12 160.203 853.996 159.755 853.748C159.307 853.5 158.955 853.144 158.699 852.68C158.443 852.208 158.315 851.648 158.315 851C158.315 850.352 158.443 849.796 158.699 849.332C158.955 848.86 159.307 848.5 159.755 848.252C160.203 848.004 160.719 847.88 161.303 847.88ZM161.303 848.888C160.943 848.888 160.635 848.972 160.379 849.14C160.131 849.3 159.939 849.536 159.803 849.848C159.667 850.16 159.599 850.544 159.599 851C159.599 851.448 159.667 851.832 159.803 852.152C159.939 852.464 160.131 852.704 160.379 852.872C160.635 853.032 160.943 853.112 161.303 853.112C161.663 853.112 161.967 853.032 162.215 852.872C162.463 852.704 162.655 852.464 162.791 852.152C162.927 851.832 162.995 851.448 162.995 851C162.995 850.544 162.927 850.16 162.791 849.848C162.655 849.536 162.463 849.3 162.215 849.14C161.967 848.972 161.663 848.888 161.303 848.888ZM166.494 854V848H167.586L167.706 849.08C167.866 848.688 168.102 848.392 168.414 848.192C168.734 847.984 169.126 847.88 169.59 847.88C169.71 847.88 169.83 847.892 169.95 847.916C170.07 847.932 170.17 847.96 170.25 848L170.07 849.128C169.982 849.096 169.882 849.072 169.77 849.056C169.666 849.032 169.522 849.02 169.338 849.02C169.09 849.02 168.846 849.088 168.606 849.224C168.366 849.352 168.166 849.548 168.006 849.812C167.854 850.076 167.778 850.412 167.778 850.82V854H166.494ZM174.551 854.12C173.951 854.12 173.423 853.996 172.967 853.748C172.511 853.5 172.155 853.144 171.899 852.68C171.651 852.208 171.527 851.648 171.527 851C171.527 850.352 171.651 849.796 171.899 849.332C172.155 848.86 172.507 848.5 172.955 848.252C173.403 848.004 173.911 847.88 174.479 847.88C175.063 847.88 175.559 848 175.967 848.24C176.375 848.48 176.687 848.808 176.903 849.224C177.119 849.64 177.227 850.112 177.227 850.64C177.227 850.784 177.223 850.92 177.215 851.048C177.207 851.176 177.195 851.288 177.179 851.384H172.355V850.4H176.615L175.979 850.592C175.979 850.048 175.843 849.632 175.571 849.344C175.299 849.048 174.927 848.9 174.455 848.9C174.111 848.9 173.811 848.98 173.555 849.14C173.299 849.3 173.103 849.54 172.967 849.86C172.831 850.172 172.763 850.556 172.763 851.012C172.763 851.46 172.835 851.84 172.979 852.152C173.123 852.464 173.327 852.7 173.591 852.86C173.855 853.02 174.167 853.1 174.527 853.1C174.927 853.1 175.251 853.024 175.499 852.872C175.747 852.72 175.943 852.508 176.087 852.236L177.107 852.716C176.963 853.004 176.767 853.256 176.519 853.472C176.279 853.68 175.991 853.84 175.655 853.952C175.319 854.064 174.951 854.12 174.551 854.12Z" fill="#92400E"/>
</g>
</g>
</g>
<g id="Component 29">
<g id="Frame 623_2">
<g id="Frame 205_3">
<path id="Inactive_2" d="M245.514 843.9C245.354 844.38 245.114 844.788 244.794 845.124C244.474 845.452 244.098 845.7 243.666 845.868C243.234 846.036 242.758 846.12 242.238 846.12C241.478 846.12 240.818 845.956 240.258 845.628C239.698 845.3 239.266 844.832 238.962 844.224C238.658 843.616 238.506 842.888 238.506 842.04C238.506 841.192 238.658 840.464 238.962 839.856C239.266 839.248 239.698 838.78 240.258 838.452C240.818 838.124 241.474 837.96 242.226 837.96C242.746 837.96 243.214 838.032 243.63 838.176C244.054 838.32 244.414 838.536 244.71 838.824C245.006 839.112 245.234 839.472 245.394 839.904L244.182 840.444C244.022 839.972 243.79 839.628 243.486 839.412C243.182 839.188 242.786 839.076 242.298 839.076C241.81 839.076 241.382 839.192 241.014 839.424C240.646 839.656 240.358 839.992 240.15 840.432C239.95 840.872 239.85 841.408 239.85 842.04C239.85 842.664 239.946 843.2 240.138 843.648C240.33 844.088 240.606 844.424 240.966 844.656C241.326 844.888 241.758 845.004 242.262 845.004C242.75 845.004 243.17 844.88 243.522 844.632C243.882 844.376 244.138 843.996 244.29 843.492L245.514 843.9ZM247.373 846V837.3H248.657V840.96C248.857 840.584 249.125 840.312 249.461 840.144C249.805 839.968 250.185 839.88 250.601 839.88C251.025 839.88 251.405 839.964 251.741 840.132C252.085 840.292 252.357 840.536 252.557 840.864C252.757 841.192 252.857 841.608 252.857 842.112V846H251.573V842.52C251.573 841.928 251.449 841.516 251.201 841.284C250.961 841.052 250.657 840.936 250.289 840.936C250.033 840.936 249.777 841 249.521 841.128C249.273 841.248 249.065 841.448 248.897 841.728C248.737 842 248.657 842.368 248.657 842.832V846H247.373ZM257.843 846.12C257.243 846.12 256.715 845.996 256.259 845.748C255.803 845.5 255.447 845.144 255.191 844.68C254.943 844.208 254.819 843.648 254.819 843C254.819 842.352 254.943 841.796 255.191 841.332C255.447 840.86 255.799 840.5 256.247 840.252C256.695 840.004 257.203 839.88 257.771 839.88C258.355 839.88 258.851 840 259.259 840.24C259.667 840.48 259.979 840.808 260.195 841.224C260.411 841.64 260.519 842.112 260.519 842.64C260.519 842.784 260.515 842.92 260.507 843.048C260.499 843.176 260.487 843.288 260.471 843.384H255.647V842.4H259.907L259.271 842.592C259.271 842.048 259.135 841.632 258.863 841.344C258.591 841.048 258.219 840.9 257.747 840.9C257.403 840.9 257.103 840.98 256.847 841.14C256.591 841.3 256.395 841.54 256.259 841.86C256.123 842.172 256.055 842.556 256.055 843.012C256.055 843.46 256.127 843.84 256.271 844.152C256.415 844.464 256.619 844.7 256.883 844.86C257.147 845.02 257.459 845.1 257.819 845.1C258.219 845.1 258.543 845.024 258.791 844.872C259.039 844.72 259.235 844.508 259.379 844.236L260.399 844.716C260.255 845.004 260.059 845.256 259.811 845.472C259.571 845.68 259.283 845.84 258.947 845.952C258.611 846.064 258.243 846.12 257.843 846.12ZM265.18 846.12C264.58 846.12 264.052 845.996 263.596 845.748C263.14 845.5 262.784 845.144 262.528 844.68C262.28 844.208 262.156 843.648 262.156 843C262.156 842.352 262.28 841.796 262.528 841.332C262.784 840.86 263.136 840.5 263.584 840.252C264.032 840.004 264.54 839.88 265.108 839.88C265.692 839.88 266.188 840 266.596 840.24C267.004 840.48 267.316 840.808 267.532 841.224C267.748 841.64 267.856 842.112 267.856 842.64C267.856 842.784 267.852 842.92 267.844 843.048C267.836 843.176 267.824 843.288 267.808 843.384H262.984V842.4H267.244L266.608 842.592C266.608 842.048 266.472 841.632 266.2 841.344C265.928 841.048 265.556 840.9 265.084 840.9C264.74 840.9 264.44 840.98 264.184 841.14C263.928 841.3 263.732 841.54 263.596 841.86C263.46 842.172 263.392 842.556 263.392 843.012C263.392 843.46 263.464 843.84 263.608 844.152C263.752 844.464 263.956 844.7 264.22 844.86C264.484 845.02 264.796 845.1 265.156 845.1C265.556 845.1 265.88 845.024 266.128 844.872C266.376 844.72 266.572 844.508 266.716 844.236L267.736 844.716C267.592 845.004 267.396 845.256 267.148 845.472C266.908 845.68 266.62 845.84 266.284 845.952C265.948 846.064 265.58 846.12 265.18 846.12ZM272.158 846.12C271.558 846.12 271.01 846.004 270.514 845.772C270.018 845.54 269.626 845.212 269.338 844.788L270.226 844.02C270.402 844.348 270.654 844.612 270.982 844.812C271.318 845.004 271.718 845.1 272.182 845.1C272.55 845.1 272.842 845.036 273.058 844.908C273.274 844.78 273.382 844.6 273.382 844.368C273.382 844.216 273.33 844.084 273.226 843.972C273.13 843.852 272.942 843.76 272.662 843.696L271.402 843.432C270.762 843.304 270.306 843.1 270.034 842.82C269.762 842.532 269.626 842.168 269.626 841.728C269.626 841.4 269.722 841.096 269.914 840.816C270.106 840.536 270.386 840.312 270.754 840.144C271.13 839.968 271.578 839.88 272.098 839.88C272.698 839.88 273.21 839.988 273.634 840.204C274.058 840.412 274.382 840.712 274.606 841.104L273.718 841.848C273.566 841.528 273.342 841.292 273.046 841.14C272.75 840.98 272.442 840.9 272.122 840.9C271.866 840.9 271.646 840.932 271.462 840.996C271.278 841.06 271.138 841.148 271.042 841.26C270.946 841.372 270.898 841.504 270.898 841.656C270.898 841.816 270.958 841.956 271.078 842.076C271.198 842.196 271.414 842.288 271.726 842.352L273.094 842.64C273.67 842.752 274.074 842.944 274.306 843.216C274.546 843.48 274.666 843.804 274.666 844.188C274.666 844.572 274.566 844.912 274.366 845.208C274.166 845.496 273.878 845.72 273.502 845.88C273.126 846.04 272.678 846.12 272.158 846.12ZM279.258 846.12C278.658 846.12 278.13 845.996 277.674 845.748C277.218 845.5 276.862 845.144 276.606 844.68C276.358 844.208 276.234 843.648 276.234 843C276.234 842.352 276.358 841.796 276.606 841.332C276.862 840.86 277.214 840.5 277.662 840.252C278.11 840.004 278.618 839.88 279.186 839.88C279.77 839.88 280.266 840 280.674 840.24C281.082 840.48 281.394 840.808 281.61 841.224C281.826 841.64 281.934 842.112 281.934 842.64C281.934 842.784 281.93 842.92 281.922 843.048C281.914 843.176 281.902 843.288 281.886 843.384H277.062V842.4H281.322L280.686 842.592C280.686 842.048 280.55 841.632 280.278 841.344C280.006 841.048 279.634 840.9 279.162 840.9C278.818 840.9 278.518 840.98 278.262 841.14C278.006 841.3 277.81 841.54 277.674 841.86C277.538 842.172 277.47 842.556 277.47 843.012C277.47 843.46 277.542 843.84 277.686 844.152C277.83 844.464 278.034 844.7 278.298 844.86C278.562 845.02 278.874 845.1 279.234 845.1C279.634 845.1 279.958 845.024 280.206 844.872C280.454 844.72 280.65 844.508 280.794 844.236L281.814 844.716C281.67 845.004 281.474 845.256 281.226 845.472C280.986 845.68 280.698 845.84 280.362 845.952C280.026 846.064 279.658 846.12 279.258 846.12ZM242.326 860.896H246.694V862H241.042V854.08H242.326V860.896ZM250.909 855.88C251.493 855.88 252.009 856.004 252.457 856.252C252.905 856.5 253.253 856.86 253.501 857.332C253.757 857.796 253.885 858.352 253.885 859C253.885 859.648 253.757 860.208 253.501 860.68C253.253 861.144 252.905 861.5 252.457 861.748C252.009 861.996 251.493 862.12 250.909 862.12C250.325 862.12 249.809 861.996 249.361 861.748C248.913 861.5 248.561 861.144 248.305 860.68C248.049 860.208 247.921 859.648 247.921 859C247.921 858.352 248.049 857.796 248.305 857.332C248.561 856.86 248.913 856.5 249.361 856.252C249.809 856.004 250.325 855.88 250.909 855.88ZM250.909 856.888C250.549 856.888 250.241 856.972 249.985 857.14C249.737 857.3 249.545 857.536 249.409 857.848C249.273 858.16 249.205 858.544 249.205 859C249.205 859.448 249.273 859.832 249.409 860.152C249.545 860.464 249.737 860.704 249.985 860.872C250.241 861.032 250.549 861.112 250.909 861.112C251.269 861.112 251.573 861.032 251.821 860.872C252.069 860.704 252.261 860.464 252.397 860.152C252.533 859.832 252.601 859.448 252.601 859C252.601 858.544 252.533 858.16 252.397 857.848C252.261 857.536 252.069 857.3 251.821 857.14C251.573 856.972 251.269 856.888 250.909 856.888ZM259.813 856H261.157L258.769 862H257.365L254.965 856H256.369L258.073 860.884L259.813 856ZM265.257 862.12C264.657 862.12 264.129 861.996 263.673 861.748C263.217 861.5 262.861 861.144 262.605 860.68C262.357 860.208 262.233 859.648 262.233 859C262.233 858.352 262.357 857.796 262.605 857.332C262.861 856.86 263.213 856.5 263.661 856.252C264.109 856.004 264.617 855.88 265.185 855.88C265.769 855.88 266.265 856 266.673 856.24C267.081 856.48 267.393 856.808 267.609 857.224C267.825 857.64 267.933 858.112 267.933 858.64C267.933 858.784 267.929 858.92 267.921 859.048C267.913 859.176 267.901 859.288 267.885 859.384H263.061V858.4H267.321L266.685 858.592C266.685 858.048 266.549 857.632 266.277 857.344C266.005 857.048 265.633 856.9 265.161 856.9C264.817 856.9 264.517 856.98 264.261 857.14C264.005 857.3 263.809 857.54 263.673 857.86C263.537 858.172 263.469 858.556 263.469 859.012C263.469 859.46 263.541 859.84 263.685 860.152C263.829 860.464 264.033 860.7 264.297 860.86C264.561 861.02 264.873 861.1 265.233 861.1C265.633 861.1 265.957 861.024 266.205 860.872C266.453 860.72 266.649 860.508 266.793 860.236L267.813 860.716C267.669 861.004 267.473 861.256 267.225 861.472C266.985 861.68 266.697 861.84 266.361 861.952C266.025 862.064 265.657 862.12 265.257 862.12ZM269.954 862V856H271.046L271.166 857.08C271.326 856.688 271.562 856.392 271.874 856.192C272.194 855.984 272.586 855.88 273.05 855.88C273.17 855.88 273.29 855.892 273.41 855.916C273.53 855.932 273.63 855.96 273.71 856L273.53 857.128C273.442 857.096 273.342 857.072 273.23 857.056C273.126 857.032 272.982 857.02 272.798 857.02C272.55 857.02 272.306 857.088 272.066 857.224C271.826 857.352 271.626 857.548 271.466 857.812C271.314 858.076 271.238 858.412 271.238 858.82V862H269.954ZM277.392 862.12C276.792 862.12 276.244 862.004 275.748 861.772C275.252 861.54 274.86 861.212 274.572 860.788L275.46 860.02C275.636 860.348 275.888 860.612 276.216 860.812C276.552 861.004 276.952 861.1 277.416 861.1C277.784 861.1 278.076 861.036 278.292 860.908C278.508 860.78 278.616 860.6 278.616 860.368C278.616 860.216 278.564 860.084 278.46 859.972C278.364 859.852 278.176 859.76 277.896 859.696L276.636 859.432C275.996 859.304 275.54 859.1 275.268 858.82C274.996 858.532 274.86 858.168 274.86 857.728C274.86 857.4 274.956 857.096 275.148 856.816C275.34 856.536 275.62 856.312 275.988 856.144C276.364 855.968 276.812 855.88 277.332 855.88C277.932 855.88 278.444 855.988 278.868 856.204C279.292 856.412 279.616 856.712 279.84 857.104L278.952 857.848C278.8 857.528 278.576 857.292 278.28 857.14C277.984 856.98 277.676 856.9 277.356 856.9C277.1 856.9 276.88 856.932 276.696 856.996C276.512 857.06 276.372 857.148 276.276 857.26C276.18 857.372 276.132 857.504 276.132 857.656C276.132 857.816 276.192 857.956 276.312 858.076C276.432 858.196 276.648 858.288 276.96 858.352L278.328 858.64C278.904 858.752 279.308 858.944 279.54 859.216C279.78 859.48 279.9 859.804 279.9 860.188C279.9 860.572 279.8 860.912 279.6 861.208C279.4 861.496 279.112 861.72 278.736 861.88C278.36 862.04 277.912 862.12 277.392 862.12Z" fill="#92400E"/>
</g>
</g>
</g>
<g id="Component 31">
<g id="Iconly/Light-Outline/Profile">
<g id="Iconly/Light-Outline/Profile_2">
<g id="Profile">
<g id="Group 3_3">
<mask id="mask5_1_421" style="mask-type:luminance" maskUnits="userSpaceOnUse" x="353" y="824" width="19" height="10">
<path id="Clip 2_4" fill-rule="evenodd" clip-rule="evenodd" d="M353.167 824.912H371.647V833.515H353.167V824.912Z" fill="white"/>
</mask>
<g mask="url(#mask5_1_421)">
<path id="Fill 1_4" fill-rule="evenodd" clip-rule="evenodd" d="M362.408 826.662C357.437 826.662 354.917 827.516 354.917 829.202C354.917 830.903 357.437 831.765 362.408 831.765C367.378 831.765 369.897 830.911 369.897 829.225C369.897 827.524 367.378 826.662 362.408 826.662ZM362.408 833.515C360.122 833.515 353.167 833.515 353.167 829.202C353.167 825.357 358.441 824.912 362.408 824.912C364.693 824.912 371.647 824.912 371.647 829.225C371.647 833.071 366.373 833.515 362.408 833.515Z" fill="#92400E"/>
</g>
</g>
<g id="Group 6_3">
<mask id="mask6_1_421" style="mask-type:luminance" maskUnits="userSpaceOnUse" x="356" y="810" width="13" height="13">
<path id="Clip 5_3" fill-rule="evenodd" clip-rule="evenodd" d="M356.212 810.333H368.602V822.722H356.212V810.333Z" fill="white"/>
</mask>
<g mask="url(#mask6_1_421)">
<path id="Fill 4_3" fill-rule="evenodd" clip-rule="evenodd" d="M362.408 811.999C359.91 811.999 357.878 814.03 357.878 816.528C357.869 819.018 359.887 821.048 362.374 821.057L362.408 821.89V821.057C364.904 821.057 366.936 819.025 366.936 816.528C366.936 814.03 364.904 811.999 362.408 811.999ZM362.408 822.722H362.37C358.961 822.711 356.2 819.931 356.212 816.525C356.212 813.112 358.991 810.333 362.408 810.333C365.824 810.333 368.602 813.112 368.602 816.528C368.602 819.944 365.824 822.722 362.408 822.722Z" fill="#92400E"/>
</g>
</g>
</g>
</g>
</g>
<g id="Frame 623_3">
<g id="Frame 205_4">
<path id="Inactive_3" d="M346.622 846.08C347.19 846.08 347.678 846.18 348.086 846.38C348.502 846.58 348.826 846.864 349.058 847.232C349.29 847.6 349.406 848.044 349.406 848.564C349.406 849.076 349.29 849.52 349.058 849.896C348.826 850.264 348.502 850.548 348.086 850.748C347.678 850.948 347.19 851.048 346.622 851.048H344.858V854H343.574V846.08H346.622ZM346.418 849.944C346.986 849.944 347.402 849.828 347.666 849.596C347.938 849.356 348.074 849.012 348.074 848.564C348.074 848.108 347.938 847.764 347.666 847.532C347.402 847.292 346.986 847.172 346.418 847.172H344.858V849.944H346.418ZM351.318 854V848H352.41L352.53 849.08C352.69 848.688 352.926 848.392 353.238 848.192C353.558 847.984 353.95 847.88 354.414 847.88C354.534 847.88 354.654 847.892 354.774 847.916C354.894 847.932 354.994 847.96 355.074 848L354.894 849.128C354.806 849.096 354.706 849.072 354.594 849.056C354.49 849.032 354.346 849.02 354.162 849.02C353.914 849.02 353.67 849.088 353.43 849.224C353.19 849.352 352.99 849.548 352.83 849.812C352.678 850.076 352.602 850.412 352.602 850.82V854H351.318ZM359.138 847.88C359.722 847.88 360.238 848.004 360.686 848.252C361.134 848.5 361.482 848.86 361.73 849.332C361.986 849.796 362.114 850.352 362.114 851C362.114 851.648 361.986 852.208 361.73 852.68C361.482 853.144 361.134 853.5 360.686 853.748C360.238 853.996 359.722 854.12 359.138 854.12C358.554 854.12 358.038 853.996 357.59 853.748C357.142 853.5 356.79 853.144 356.534 852.68C356.278 852.208 356.15 851.648 356.15 851C356.15 850.352 356.278 849.796 356.534 849.332C356.79 848.86 357.142 848.5 357.59 848.252C358.038 848.004 358.554 847.88 359.138 847.88ZM359.138 848.888C358.778 848.888 358.47 848.972 358.214 849.14C357.966 849.3 357.774 849.536 357.638 849.848C357.502 850.16 357.434 850.544 357.434 851C357.434 851.448 357.502 851.832 357.638 852.152C357.774 852.464 357.966 852.704 358.214 852.872C358.47 853.032 358.778 853.112 359.138 853.112C359.498 853.112 359.802 853.032 360.05 852.872C360.298 852.704 360.49 852.464 360.626 852.152C360.762 851.832 360.83 851.448 360.83 851C360.83 850.544 360.762 850.16 360.626 849.848C360.49 849.536 360.298 849.3 360.05 849.14C359.802 848.972 359.498 848.888 359.138 848.888ZM366.592 845.216C366.84 845.216 367.064 845.244 367.264 845.3C367.472 845.348 367.628 845.416 367.732 845.504L367.492 846.428C367.404 846.372 367.304 846.332 367.192 846.308C367.08 846.276 366.952 846.26 366.808 846.26C366.48 846.26 366.22 846.336 366.028 846.488C365.844 846.64 365.752 846.888 365.752 847.232V848.108L365.788 848.432V854H364.504V847.136C364.504 846.832 364.548 846.56 364.636 846.32C364.732 846.08 364.872 845.88 365.056 845.72C365.24 845.552 365.46 845.428 365.716 845.348C365.98 845.26 366.272 845.216 366.592 845.216ZM367.696 848V849.008H363.376V848H367.696ZM369.496 846.992C369.216 846.992 369 846.924 368.848 846.788C368.704 846.644 368.632 846.444 368.632 846.188C368.632 845.932 368.704 845.736 368.848 845.6C369 845.464 369.216 845.396 369.496 845.396C369.768 845.396 369.976 845.464 370.12 845.6C370.272 845.736 370.348 845.932 370.348 846.188C370.348 846.444 370.272 846.644 370.12 846.788C369.976 846.924 369.768 846.992 369.496 846.992ZM370.132 848V854H368.848V848H370.132ZM373.77 845.3V852.32C373.77 852.616 373.822 852.82 373.926 852.932C374.03 853.044 374.202 853.1 374.442 853.1C374.586 853.1 374.706 853.092 374.802 853.076C374.906 853.052 375.034 853.012 375.186 852.956L375.042 853.916C374.906 853.98 374.75 854.028 374.574 854.06C374.398 854.1 374.222 854.12 374.046 854.12C373.51 854.12 373.114 853.984 372.858 853.712C372.61 853.432 372.486 853.004 372.486 852.428V845.3H373.77ZM379.3 854.12C378.7 854.12 378.172 853.996 377.716 853.748C377.26 853.5 376.904 853.144 376.648 852.68C376.4 852.208 376.276 851.648 376.276 851C376.276 850.352 376.4 849.796 376.648 849.332C376.904 848.86 377.256 848.5 377.704 848.252C378.152 848.004 378.66 847.88 379.228 847.88C379.812 847.88 380.308 848 380.716 848.24C381.124 848.48 381.436 848.808 381.652 849.224C381.868 849.64 381.976 850.112 381.976 850.64C381.976 850.784 381.972 850.92 381.964 851.048C381.956 851.176 381.944 851.288 381.928 851.384H377.104V850.4H381.364L380.728 850.592C380.728 850.048 380.592 849.632 380.32 849.344C380.048 849.048 379.676 848.9 379.204 848.9C378.86 848.9 378.56 848.98 378.304 849.14C378.048 849.3 377.852 849.54 377.716 849.86C377.58 850.172 377.512 850.556 377.512 851.012C377.512 851.46 377.584 851.84 377.728 852.152C377.872 852.464 378.076 852.7 378.34 852.86C378.604 853.02 378.916 853.1 379.276 853.1C379.676 853.1 380 853.024 380.248 852.872C380.496 852.72 380.692 852.508 380.836 852.236L381.856 852.716C381.712 853.004 381.516 853.256 381.268 853.472C381.028 853.68 380.74 853.84 380.404 853.952C380.068 854.064 379.7 854.12 379.3 854.12Z" fill="#92400E"/>
</g>
</g>
</g>
</g>
</g>
<g id="Heart">
<g id="Heart_2">
<path id="Icon" d="M272.787 807.147C272.106 806.465 271.297 805.925 270.407 805.556C269.517 805.187 268.563 804.998 267.6 804.998C266.637 804.998 265.683 805.187 264.793 805.556C263.903 805.925 263.094 806.465 262.413 807.147L261 808.56L259.587 807.147C258.211 805.771 256.345 804.998 254.4 804.998C252.455 804.998 250.589 805.771 249.213 807.147C247.838 808.522 247.065 810.388 247.065 812.333C247.065 814.279 247.838 816.144 249.213 817.52L261 829.307L272.787 817.52C273.468 816.839 274.008 816.03 274.377 815.14C274.746 814.251 274.936 813.297 274.936 812.333C274.936 811.37 274.746 810.416 274.377 809.526C274.008 808.636 273.468 807.828 272.787 807.147Z" stroke="#93410E" stroke-width="4" stroke-linecap="round" stroke-linejoin="round"/>
</g>
</g>
</g>
</g>
<defs>
<clipPath id="clip0_1_421">
<rect width="414" height="896" rx="40" fill="white"/>
</clipPath>
</defs>
</svg>
